<svg xmlns="http://www.w3.org/2000/svg" width="36" height="36" viewBox="0 0 36 36" fill="none"><rect x="1" y="1" width="34" height="34" rx="7" stroke="#007A90" stroke-width="2"></rect><rect x="3" y="3" width="30" height="30" rx="6" fill="#0C3136"></rect><path d="M22.5 8V11M13.5 8V11M18 8V11" stroke="#00BBDF" stroke-width="1.5" stroke-linecap="round" stroke-linejoin="round"></path><path d="M19 9.5H17C13.7002 9.5 12.0502 9.5 11.0251 10.5251C10 11.5502 10 13.2002 10 16.5V21C10 24.2998 10 25.9497 11.0251 26.9749C12.0502 28 13.7002 28 17 28H19C22.2998 28 23.9497 28 24.9749 26.9749C26 25.9497 26 24.2998 26 21V16.5C26 13.2002 26 11.5502 24.9749 10.5251C23.9497 9.5 22.2998 9.5 19 9.5Z" stroke="#00BBDF" stroke-width="1.5" stroke-linecap="round" stroke-linejoin="round"></path><path d="M14 21H18M14 17H22" stroke="#00BBDF" stroke-width="1.5" stroke-linecap="round" stroke-linejoin="round"></path></svg>